<svg xmlns="http://www.w3.org/2000/svg" xmlns:xlink="http://www.w3.org/1999/xlink" width="500" zoomAndPan="magnify" viewBox="0 0 375 104.999996" height="140" preserveAspectRatio="xMidYMid meet" version="1.0"><defs><g/><clipPath id="20022a635c"><path d="M 18 11 L 142.5 11 L 142.5 80 L 18 80 Z M 18 11 " clip-rule="nonzero"/></clipPath><clipPath id="677e8fd980"><path d="M 14.308594 1.210938 L 113.886719 1.210938 L 113.886719 104.933594 L 14.308594 104.933594 Z M 14.308594 1.210938 " clip-rule="nonzero"/></clipPath></defs><g clip-path="url(#20022a635c)"><path fill="#8ac0c8" d="M 45.152344 11.132812 L 36.132812 11.132812 L 36.132812 14.6875 L 45.152344 14.6875 Z M 48.179688 19.183594 L 18.808594 19.183594 L 18.808594 22.738281 L 48.179688 22.738281 Z M 88.21875 27.234375 L 74.050781 27.234375 L 74.050781 30.789062 L 88.21875 30.789062 Z M 37.59375 35.285156 L 18.808594 35.285156 L 18.808594 38.839844 L 37.59375 38.839844 Z M 59.535156 43.335938 L 18.808594 43.335938 L 18.808594 46.890625 L 59.535156 46.890625 Z M 85.796875 46.890625 L 126.523438 46.890625 L 126.523438 43.335938 L 85.796875 43.335938 Z M 115.824219 67.484375 L 115.824219 71.039062 L 142.5 71.039062 L 142.5 67.484375 Z M 49.03125 71.039062 L 112.277344 71.039062 L 112.277344 67.484375 L 49.03125 67.484375 Z M 18.808594 79.089844 L 44.90625 79.089844 L 44.90625 75.535156 L 18.808594 75.535156 L 18.808594 79.089844 " fill-opacity="1" fill-rule="nonzero"/></g><path fill="#18bd9c" d="M 100.539062 19.183594 L 71.167969 19.183594 L 71.167969 22.738281 L 100.539062 22.738281 Z M 70.507812 27.234375 L 18.808594 27.234375 L 18.808594 30.789062 L 70.507812 30.789062 Z M 62.503906 54.941406 L 98.035156 54.941406 L 98.035156 51.386719 L 62.503906 51.386719 Z M 45.484375 67.484375 L 18.808594 67.484375 L 18.808594 71.039062 L 45.484375 71.039062 Z M 95.421875 75.535156 L 95.421875 79.089844 L 103.042969 79.089844 L 103.042969 75.535156 Z M 35.171875 87.140625 L 95.726562 87.140625 L 95.726562 83.585938 L 35.171875 83.585938 L 35.171875 87.140625 " fill-opacity="1" fill-rule="nonzero"/><path fill="#fcde82" d="M 0 6.640625 L 3.546875 6.640625 L 3.546875 3.085938 L 0 3.085938 Z M 0 14.6875 L 3.546875 14.6875 L 3.546875 11.132812 L 0 11.132812 Z M 67.621094 19.183594 L 51.726562 19.183594 L 51.726562 22.738281 L 67.621094 22.738281 Z M 0 22.738281 L 3.546875 22.738281 L 3.546875 19.183594 L 0 19.183594 Z M 0 30.789062 L 3.546875 30.789062 L 3.546875 27.234375 L 0 27.234375 Z M 80.132812 35.285156 L 41.136719 35.285156 L 41.136719 38.839844 L 80.132812 38.839844 Z M 0 38.839844 L 3.546875 38.839844 L 3.546875 35.285156 L 0 35.285156 Z M 0 46.890625 L 3.546875 46.890625 L 3.546875 43.335938 L 0 43.335938 Z M 58.960938 51.386719 L 18.808594 51.386719 L 18.808594 54.941406 L 58.960938 54.941406 Z M 0 54.941406 L 3.546875 54.941406 L 3.546875 51.386719 L 0 51.386719 Z M 0 62.988281 L 3.546875 62.988281 L 3.546875 59.433594 L 0 59.433594 Z M 0 71.039062 L 3.546875 71.039062 L 3.546875 67.484375 L 0 67.484375 Z M 48.453125 75.535156 L 48.453125 79.089844 L 91.878906 79.089844 L 91.878906 75.535156 Z M 0 79.089844 L 3.546875 79.089844 L 3.546875 75.535156 L 0 75.535156 Z M 18.808594 87.140625 L 31.625 87.140625 L 31.625 83.585938 L 18.808594 83.585938 Z M 0 87.140625 L 3.546875 87.140625 L 3.546875 83.585938 L 0 83.585938 Z M 0 95.1875 L 3.546875 95.1875 L 3.546875 91.636719 L 0 91.636719 Z M 9.683594 104.644531 L 11.414062 104.644531 L 11.414062 0.0625 L 9.683594 0.0625 L 9.683594 104.644531 " fill-opacity="1" fill-rule="nonzero"/><g clip-path="url(#677e8fd980)"><path fill="#f49c10" d="M 32.589844 11.132812 L 14.550781 11.132812 L 14.550781 14.6875 L 32.589844 14.6875 Z M 91.761719 27.234375 L 91.761719 30.789062 L 113.820312 30.789062 L 113.820312 27.234375 Z M 63.082031 46.890625 L 82.253906 46.890625 L 82.253906 43.335938 L 63.082031 43.335938 Z M 14.550781 62.988281 L 34.320312 62.988281 L 34.320312 59.433594 L 14.550781 59.433594 Z M 27.199219 91.636719 L 14.550781 91.636719 L 14.550781 95.1875 L 27.199219 95.1875 Z M 25.773438 8.269531 C 25.921875 8.269531 26.070312 8.214844 26.179688 8.101562 L 31.484375 2.785156 C 31.710938 2.5625 31.710938 2.191406 31.484375 1.96875 C 31.261719 1.742188 30.894531 1.742188 30.667969 1.96875 L 25.363281 7.285156 C 25.140625 7.511719 25.140625 7.878906 25.363281 8.101562 C 25.476562 8.214844 25.625 8.269531 25.773438 8.269531 Z M 21.367188 8.417969 C 21.480469 8.535156 21.628906 8.589844 21.777344 8.589844 C 21.921875 8.589844 22.070312 8.535156 22.183594 8.417969 C 22.410156 8.195312 22.410156 7.828125 22.183594 7.601562 L 19.625 5.035156 L 22.183594 2.46875 C 22.410156 2.242188 22.410156 1.875 22.183594 1.648438 C 21.960938 1.425781 21.59375 1.425781 21.367188 1.648438 L 18.398438 4.625 C 18.171875 4.851562 18.171875 5.21875 18.398438 5.445312 Z M 35.640625 1.648438 C 35.414062 1.425781 35.050781 1.425781 34.824219 1.648438 C 34.601562 1.875 34.601562 2.246094 34.824219 2.46875 L 37.382812 5.03125 L 34.824219 7.601562 C 34.601562 7.828125 34.601562 8.195312 34.824219 8.421875 C 34.9375 8.535156 35.085938 8.589844 35.234375 8.589844 C 35.378906 8.589844 35.527344 8.535156 35.640625 8.421875 L 38.609375 5.445312 C 38.71875 5.335938 38.777344 5.191406 38.777344 5.035156 C 38.777344 4.878906 38.71875 4.734375 38.609375 4.625 Z M 35.644531 97.992188 C 35.414062 97.765625 35.050781 97.765625 34.824219 97.992188 C 34.601562 98.21875 34.601562 98.585938 34.824219 98.8125 L 37.382812 101.378906 L 34.824219 103.945312 C 34.597656 104.167969 34.597656 104.535156 34.824219 104.761719 C 34.9375 104.875 35.085938 104.933594 35.234375 104.933594 C 35.378906 104.933594 35.527344 104.875 35.644531 104.761719 L 38.609375 101.785156 C 38.71875 101.675781 38.777344 101.53125 38.777344 101.378906 C 38.777344 101.222656 38.71875 101.074219 38.609375 100.96875 Z M 22.183594 97.992188 C 21.957031 97.765625 21.59375 97.765625 21.367188 97.992188 L 18.398438 100.96875 C 18.171875 101.195312 18.171875 101.5625 18.398438 101.785156 L 21.367188 104.761719 C 21.480469 104.875 21.628906 104.929688 21.777344 104.929688 C 21.925781 104.929688 22.070312 104.875 22.183594 104.765625 C 22.410156 104.535156 22.410156 104.167969 22.183594 103.945312 L 19.625 101.378906 L 22.183594 98.8125 C 22.410156 98.585938 22.410156 98.21875 22.183594 97.992188 Z M 30.667969 98.308594 L 25.363281 103.625 C 25.140625 103.851562 25.140625 104.21875 25.363281 104.445312 C 25.476562 104.558594 25.625 104.613281 25.773438 104.613281 C 25.921875 104.613281 26.070312 104.558594 26.183594 104.445312 L 31.484375 99.128906 C 31.710938 98.902344 31.710938 98.535156 31.484375 98.308594 C 31.261719 98.082031 30.894531 98.082031 30.667969 98.308594 " fill-opacity="1" fill-rule="nonzero"/></g><g fill="#f49c10" fill-opacity="1"><g transform="translate(155.9125, 63.176535)"><g><path d="M 15 -20.398438 C 12.679688 -20.398438 10.679688 -19.640625 9.078125 -18.160156 L 9.078125 -31.996094 L 3.039062 -31.996094 L 3.039062 0 L 9.078125 0 L 9.078125 -1.839844 C 10.679688 -0.320312 12.679688 0.398438 15 0.398438 C 17.71875 0.398438 20 -0.601562 21.917969 -2.640625 C 23.839844 -4.640625 24.796875 -7.121094 24.796875 -10 C 24.796875 -12.878906 23.839844 -15.320312 21.917969 -17.359375 C 20 -19.359375 17.71875 -20.398438 15 -20.398438 Z M 13.757812 -5 C 12.320312 -5 11.121094 -5.480469 10.160156 -6.441406 C 9.199219 -7.398438 8.71875 -8.597656 8.71875 -10 C 8.71875 -11.359375 9.199219 -12.558594 10.199219 -13.558594 C 11.160156 -14.519531 12.359375 -15.039062 13.757812 -15.039062 C 15.117188 -15.039062 16.320312 -14.519531 17.277344 -13.558594 C 18.238281 -12.597656 18.757812 -11.398438 18.757812 -10 C 18.757812 -8.597656 18.238281 -7.398438 17.277344 -6.441406 C 16.320312 -5.480469 15.117188 -5 13.757812 -5 Z M 13.757812 -5 "/></g></g></g><g fill="#f49c10" fill-opacity="1"><g transform="translate(182.349872, 63.176535)"><g><path d="M 12.679688 0.398438 C 15.757812 0.398438 18.359375 -0.601562 20.519531 -2.601562 C 22.636719 -4.601562 23.71875 -7.078125 23.71875 -10 C 23.71875 -12.878906 22.636719 -15.359375 20.519531 -17.359375 C 18.359375 -19.359375 15.757812 -20.398438 12.679688 -20.398438 C 9.597656 -20.398438 7 -19.359375 4.839844 -17.359375 C 2.679688 -15.359375 1.640625 -12.878906 1.640625 -10 C 1.640625 -7.078125 2.679688 -4.601562 4.839844 -2.601562 C 7 -0.601562 9.597656 0.398438 12.679688 0.398438 Z M 12.679688 -5 C 11.238281 -5 10.078125 -5.480469 9.121094 -6.441406 C 8.160156 -7.398438 7.679688 -8.597656 7.679688 -10 C 7.679688 -11.398438 8.160156 -12.597656 9.121094 -13.558594 C 10.078125 -14.519531 11.277344 -15.039062 12.679688 -15.039062 C 14.039062 -15.039062 15.238281 -14.519531 16.238281 -13.558594 C 17.199219 -12.558594 17.71875 -11.359375 17.71875 -10 C 17.71875 -8.597656 17.199219 -7.398438 16.238281 -6.441406 C 15.238281 -5.480469 14.039062 -5 12.679688 -5 Z M 12.679688 -5 "/></g></g></g><g fill="#f49c10" fill-opacity="1"><g transform="translate(207.707357, 63.176535)"><g><path d="M 6 -23.679688 C 6.878906 -23.679688 7.679688 -24 8.359375 -24.679688 C 9.039062 -25.320312 9.398438 -26.117188 9.398438 -27.039062 C 9.398438 -27.957031 9.039062 -28.757812 8.398438 -29.398438 C 7.71875 -30.039062 6.917969 -30.398438 6 -30.398438 C 5.078125 -30.398438 4.28125 -30.039062 3.640625 -29.398438 C 2.960938 -28.757812 2.640625 -27.957031 2.640625 -27.039062 C 2.640625 -26.117188 2.960938 -25.320312 3.640625 -24.679688 C 4.28125 -24 5.078125 -23.679688 6 -23.679688 Z M 3 0 L 9 0 L 9 -20 L 3 -20 Z M 3 0 "/></g></g></g><g fill="#f49c10" fill-opacity="1"><g transform="translate(219.746163, 63.176535)"><g><path d="M 3.039062 0 L 9.078125 0 L 9.078125 -30 L 3.039062 -30 Z M 3.039062 0 "/></g></g></g><g fill="#f49c10" fill-opacity="1"><g transform="translate(231.864963, 63.176535)"><g><path d="M 22.558594 -10.199219 C 22.519531 -13.277344 21.558594 -15.757812 19.71875 -17.640625 C 17.839844 -19.480469 15.398438 -20.4375 12.4375 -20.4375 C 9.199219 -20.4375 6.597656 -19.4375 4.601562 -17.4375 C 2.601562 -15.4375 1.640625 -12.960938 1.640625 -10 C 1.640625 -6.960938 2.558594 -4.441406 4.480469 -2.519531 C 6.398438 -0.558594 9.121094 0.398438 12.679688 0.398438 C 14.71875 0.398438 16.558594 -0.078125 18.238281 -1.078125 C 19.917969 -2.039062 21.117188 -3.398438 21.878906 -5.078125 L 17 -7.078125 C 16.117188 -5.320312 14.597656 -4.441406 12.480469 -4.441406 C 11.238281 -4.441406 10.199219 -4.800781 9.320312 -5.601562 C 8.441406 -6.398438 7.917969 -7.480469 7.757812 -8.839844 L 22.480469 -8.839844 Z M 12.277344 -15.71875 C 14.277344 -15.71875 15.640625 -14.71875 16.320312 -12.757812 L 8.121094 -12.757812 C 8.839844 -14.71875 10.238281 -15.71875 12.277344 -15.71875 Z M 12.277344 -15.71875 "/></g></g></g><g fill="#f49c10" fill-opacity="1"><g transform="translate(256.062554, 63.176535)"><g><path d="M 13.917969 -20.277344 C 11.878906 -20.277344 10.28125 -19.238281 9.078125 -17.199219 L 9.078125 -20 L 3.039062 -20 L 3.039062 0 L 9.078125 0 L 9.078125 -9.71875 C 9.078125 -11.320312 9.480469 -12.558594 10.359375 -13.519531 C 11.199219 -14.4375 12.320312 -14.917969 13.71875 -14.917969 C 14.199219 -14.917969 14.757812 -14.800781 15.480469 -14.640625 L 15.480469 -20 C 15.078125 -20.160156 14.558594 -20.277344 13.917969 -20.277344 Z M 13.917969 -20.277344 "/></g></g></g><g fill="#f49c10" fill-opacity="1"><g transform="translate(272.020973, 63.176535)"><g><path d="M 15 -20.398438 C 12.679688 -20.398438 10.679688 -19.640625 9.078125 -18.160156 L 9.078125 -20 L 3.039062 -20 L 3.039062 10 L 9.078125 10 L 9.078125 -1.839844 C 10.679688 -0.320312 12.679688 0.398438 15 0.398438 C 17.71875 0.398438 20 -0.601562 21.917969 -2.640625 C 23.839844 -4.640625 24.796875 -7.121094 24.796875 -10 C 24.796875 -12.878906 23.839844 -15.320312 21.917969 -17.359375 C 20 -19.359375 17.71875 -20.398438 15 -20.398438 Z M 13.757812 -5 C 12.320312 -5 11.121094 -5.480469 10.160156 -6.441406 C 9.199219 -7.398438 8.71875 -8.597656 8.71875 -10 C 8.71875 -11.359375 9.199219 -12.558594 10.199219 -13.558594 C 11.160156 -14.519531 12.359375 -15.039062 13.757812 -15.039062 C 15.117188 -15.039062 16.320312 -14.519531 17.277344 -13.558594 C 18.238281 -12.597656 18.757812 -11.398438 18.757812 -10 C 18.757812 -8.597656 18.238281 -7.398438 17.277344 -6.441406 C 16.320312 -5.480469 15.117188 -5 13.757812 -5 Z M 13.757812 -5 "/></g></g></g><g fill="#f49c10" fill-opacity="1"><g transform="translate(298.458345, 63.176535)"><g><path d="M 3.039062 0 L 9.078125 0 L 9.078125 -30 L 3.039062 -30 Z M 3.039062 0 "/></g></g></g><g fill="#f49c10" fill-opacity="1"><g transform="translate(310.577145, 63.176535)"><g><path d="M 17.4375 -20 L 17.4375 -17.957031 C 15.960938 -19.558594 13.960938 -20.398438 11.4375 -20.398438 C 8.71875 -20.398438 6.398438 -19.359375 4.480469 -17.359375 C 2.558594 -15.320312 1.640625 -12.878906 1.640625 -10 C 1.640625 -7.121094 2.558594 -4.640625 4.480469 -2.640625 C 6.398438 -0.601562 8.71875 0.398438 11.4375 0.398438 C 13.960938 0.398438 15.960938 -0.398438 17.4375 -2.039062 L 17.4375 0 L 23.4375 0 L 23.4375 -20 Z M 12.679688 -5 C 11.238281 -5 10.078125 -5.480469 9.121094 -6.441406 C 8.160156 -7.398438 7.679688 -8.597656 7.679688 -10 C 7.679688 -11.398438 8.160156 -12.597656 9.121094 -13.558594 C 10.078125 -14.519531 11.277344 -15.039062 12.679688 -15.039062 C 14.078125 -15.039062 15.277344 -14.519531 16.238281 -13.558594 C 17.199219 -12.558594 17.71875 -11.359375 17.71875 -10 C 17.71875 -8.597656 17.199219 -7.398438 16.238281 -6.441406 C 15.277344 -5.480469 14.078125 -5 12.679688 -5 Z M 12.679688 -5 "/></g></g></g><g fill="#f49c10" fill-opacity="1"><g transform="translate(337.054514, 63.176535)"><g><path d="M 14.277344 -20 L 10.519531 -20 L 10.519531 -27.199219 L 4.480469 -27.199219 L 4.480469 -20 L 0.71875 -20 L 0.71875 -15.320312 L 4.480469 -15.320312 L 4.480469 0 L 10.519531 0 L 10.519531 -15.320312 L 14.277344 -15.320312 Z M 14.277344 -20 "/></g></g></g><g fill="#f49c10" fill-opacity="1"><g transform="translate(352.053025, 63.176535)"><g><path d="M 22.558594 -10.199219 C 22.519531 -13.277344 21.558594 -15.757812 19.71875 -17.640625 C 17.839844 -19.480469 15.398438 -20.4375 12.4375 -20.4375 C 9.199219 -20.4375 6.597656 -19.4375 4.601562 -17.4375 C 2.601562 -15.4375 1.640625 -12.960938 1.640625 -10 C 1.640625 -6.960938 2.558594 -4.441406 4.480469 -2.519531 C 6.398438 -0.558594 9.121094 0.398438 12.679688 0.398438 C 14.71875 0.398438 16.558594 -0.078125 18.238281 -1.078125 C 19.917969 -2.039062 21.117188 -3.398438 21.878906 -5.078125 L 17 -7.078125 C 16.117188 -5.320312 14.597656 -4.441406 12.480469 -4.441406 C 11.238281 -4.441406 10.199219 -4.800781 9.320312 -5.601562 C 8.441406 -6.398438 7.917969 -7.480469 7.757812 -8.839844 L 22.480469 -8.839844 Z M 12.277344 -15.71875 C 14.277344 -15.71875 15.640625 -14.71875 16.320312 -12.757812 L 8.121094 -12.757812 C 8.839844 -14.71875 10.238281 -15.71875 12.277344 -15.71875 Z M 12.277344 -15.71875 "/></g></g></g></svg>